<svg width="18" height="18" viewBox="0 0 18 18" fill="none" xmlns="http://www.w3.org/2000/svg">
<path d="M5.10708 14.6144C5.42913 14.6144 5.65514 14.4731 5.99979 14.1341L8.91525 11.2412C8.9435 11.213 8.97175 11.1904 9 11.1904C9.0226 11.1904 9.05085 11.213 9.0791 11.2412L11.9946 14.1341C12.3392 14.4731 12.5652 14.6144 12.8873 14.6144C13.3167 14.6144 13.6048 14.2867 13.6048 13.8346C13.6048 13.5973 13.5144 13.3148 13.4127 13.0323L9.88707 3.44974C9.68367 2.90168 9.39551 2.61353 9 2.61353C8.60449 2.61353 8.31069 2.89603 8.10728 3.44974L4.58161 13.0323C4.47991 13.3148 4.38951 13.5973 4.38951 13.8346C4.38951 14.2867 4.67767 14.6144 5.10708 14.6144Z" fill="#323643"/>
</svg>
