<svg width="15" height="15" viewBox="0 0 15 15" fill="none" xmlns="http://www.w3.org/2000/svg">
<path d="M11.9542 7.31011C11.9542 7.16415 11.893 7.0229 11.7847 6.91931L8.69125 3.82588C8.56883 3.70816 8.4417 3.65637 8.30987 3.65637C8.00853 3.65637 7.79194 3.86825 7.79194 4.15547C7.79194 4.30613 7.85315 4.43326 7.94732 4.52743L9.00671 5.60095L10.3722 6.84869L9.2798 6.78277H3.57319C3.25773 6.78277 3.04114 6.99935 3.04114 7.31011C3.04114 7.61616 3.25773 7.83275 3.57319 7.83275H9.2798L10.3722 7.76683L9.00671 9.01456L7.94732 10.0881C7.85315 10.1823 7.79194 10.3094 7.79194 10.46C7.79194 10.7473 8.00853 10.9591 8.30987 10.9591C8.4417 10.9591 8.56883 10.9073 8.68183 10.7991L11.7847 7.6962C11.893 7.59262 11.9542 7.45136 11.9542 7.31011Z" fill="#323643"/>
</svg>
