<svg width="15" height="15" viewBox="0 0 15 15" fill="none" xmlns="http://www.w3.org/2000/svg">
<path d="M11.9542 7.31011C11.9542 7.16415 11.893 7.0229 11.7847 6.91931L8.69123 3.82588C8.56881 3.70816 8.44169 3.65637 8.30985 3.65637C8.00851 3.65637 7.79192 3.86825 7.79192 4.15547C7.79192 4.30613 7.85313 4.43326 7.9473 4.52743L9.0067 5.60095L10.3721 6.84869L9.27979 6.78277H3.57317C3.25771 6.78277 3.04112 6.99935 3.04112 7.31011C3.04112 7.61616 3.25771 7.83275 3.57317 7.83275H9.27979L10.3721 7.76683L9.0067 9.01456L7.9473 10.0881C7.85313 10.1823 7.79192 10.3094 7.79192 10.46C7.79192 10.7473 8.00851 10.9591 8.30985 10.9591C8.44169 10.9591 8.56881 10.9073 8.68182 10.7991L11.7847 7.6962C11.893 7.59262 11.9542 7.45136 11.9542 7.31011Z" fill="#323643"/>
</svg>
