<svg width="20" height="20" viewBox="0 0 20 20" fill="none" xmlns="http://www.w3.org/2000/svg">
<circle cx="9.99996" cy="9.99996" r="8.33333" fill="#3BB243"/>
<g clip-path="url(#clip0_17_7922)">
<path d="M9.99998 18.8889C8.24192 18.8889 6.52334 18.3675 5.06157 17.3908C3.5998 16.4141 2.46049 15.0258 1.78771 13.4016C1.11494 11.7774 0.938906 9.99012 1.28189 8.26584C1.62487 6.54157 2.47145 4.95772 3.71458 3.71458C4.95772 2.47145 6.54157 1.62487 8.26584 1.28189C9.99012 0.938906 11.7774 1.11494 13.4016 1.78771C15.0258 2.46049 16.4141 3.5998 17.3908 5.06157C18.3675 6.52334 18.8889 8.24192 18.8889 9.99998C18.8889 12.3575 17.9524 14.6184 16.2854 16.2854C14.6184 17.9524 12.3575 18.8889 9.99998 18.8889ZM9.99998 2.2222C8.46168 2.2222 6.95792 2.67836 5.67888 3.53299C4.39983 4.38762 3.40293 5.60235 2.81425 7.02355C2.22557 8.44475 2.07154 10.0086 2.37165 11.5173C2.67175 13.0261 3.41252 14.412 4.50026 15.4997C5.588 16.5874 6.97387 17.3282 8.48261 17.6283C9.99135 17.9284 11.5552 17.7744 12.9764 17.1857C14.3976 16.597 15.6123 15.6001 16.467 14.3211C17.3216 13.042 17.7778 11.5383 17.7778 9.99998C17.7778 7.93718 16.9583 5.95887 15.4997 4.50026C14.0411 3.04164 12.0628 2.2222 9.99998 2.2222Z" fill="#3BB243"/>
</g>
<path fill-rule="evenodd" clip-rule="evenodd" d="M15.1294 6.74561C15.2466 6.86282 15.3124 7.02176 15.3124 7.18749C15.3124 7.35322 15.2466 7.51216 15.1294 7.62936L9.19189 13.5669C9.07468 13.684 8.91574 13.7499 8.75001 13.7499C8.58428 13.7499 8.42534 13.684 8.30814 13.5669L5.49564 10.7544C5.38179 10.6365 5.31879 10.4786 5.32021 10.3147C5.32164 10.1509 5.38737 9.99411 5.50325 9.87823C5.61913 9.76235 5.77589 9.69662 5.93976 9.69519C6.10363 9.69377 6.26151 9.75676 6.37939 9.87061L8.75001 12.2412L14.2456 6.74561C14.3628 6.62844 14.5218 6.56262 14.6875 6.56262C14.8532 6.56262 15.0122 6.62844 15.1294 6.74561Z" fill="white"/>
<defs>
<clipPath id="clip0_17_7922">
<rect width="20" height="20" fill="white"/>
</clipPath>
</defs>
</svg>
