<svg width="36" height="36" viewBox="0 0 36 36" fill="none" xmlns="http://www.w3.org/2000/svg">
<circle cx="18" cy="18" r="18" fill="#D9D9D9"/>
<path d="M13.1258 21.3725C12.8094 21.6889 12.7944 22.2539 13.1334 22.5778C13.4573 22.9168 14.0299 22.9018 14.3463 22.5854L18 18.9316L21.6537 22.5854C21.9777 22.9093 22.5352 22.9168 22.8591 22.5778C23.1981 22.2539 23.1906 21.6889 22.8666 21.3649L19.2129 17.7112L22.8666 14.065C23.1906 13.7335 23.1981 13.176 22.8591 12.8521C22.5352 12.5131 21.9777 12.5206 21.6537 12.8446L18 16.4983L14.3463 12.8446C14.0299 12.5282 13.4573 12.5131 13.1334 12.8521C12.7944 13.176 12.8094 13.7411 13.1258 14.0575L16.7796 17.7112L13.1258 21.3725Z" fill="#323643"/>
</svg>
