<svg width="21" height="22" viewBox="0 0 21 22" fill="none" xmlns="http://www.w3.org/2000/svg">
<path d="M10.5 14.3662C10.7307 14.3596 10.9417 14.2739 11.113 14.0894L16.1228 8.96094C16.2678 8.81592 16.3469 8.63135 16.3469 8.41382C16.3469 7.97876 16.0042 7.62939 15.5691 7.62939C15.3582 7.62939 15.1538 7.71509 15.0022 7.8667L10.5066 12.4875L5.9978 7.8667C5.84619 7.72168 5.64844 7.62939 5.43091 7.62939C4.99585 7.62939 4.65308 7.97876 4.65308 8.41382C4.65308 8.63135 4.73218 8.81592 4.8772 8.96094L9.89355 14.0894C10.0715 14.2739 10.2693 14.3662 10.5 14.3662Z" fill="#323643"/>
</svg>
