<svg width="49" height="31" viewBox="0 0 49 31" fill="none" xmlns="http://www.w3.org/2000/svg">
<path d="M30.4761 3.40264L17.6392 3.44678L18.0281 26.948L30.8651 26.9038L30.4761 3.40264Z" fill="#FF5F00"/>
<path d="M18.4838 15.2445C18.4043 10.4646 20.5456 6.21741 23.8995 3.46248C21.3679 1.47593 18.1941 0.281345 14.7537 0.293129C6.6031 0.321043 0.120118 7.03556 0.257572 15.307C0.395027 23.5784 7.10043 30.2477 15.251 30.2198C18.6915 30.208 21.8252 28.9918 24.2904 26.9882C20.846 24.2981 18.5632 20.0245 18.4838 15.2445Z" fill="#EB001B"/>
<path d="M48.2462 15.0436C48.3837 23.315 41.9007 30.0295 33.7501 30.0574C30.3096 30.0692 27.1359 28.8746 24.6043 26.8881C27.9992 24.133 30.0995 19.8859 30.02 15.106C29.9406 10.326 27.6584 6.094 24.2133 3.36236C26.6786 1.35869 29.8123 0.142507 33.2528 0.130724C41.4034 0.102809 48.1095 6.81373 48.2462 15.0436Z" fill="#F79E1B"/>
</svg>
