<svg width="20" height="20" viewBox="0 0 20 20" fill="none" xmlns="http://www.w3.org/2000/svg">
<path d="M3.64049 7.989C3.64049 10.6697 5.89425 13.3189 9.39732 15.579C9.59194 15.7045 9.8305 15.8301 9.99372 15.8301C10.1569 15.8301 10.3955 15.7045 10.5901 15.579C14.0995 13.3189 16.347 10.6697 16.347 7.989C16.347 5.67245 14.7461 4.06531 12.6932 4.06531C11.4941 4.06531 10.5587 4.61149 9.99372 5.44017C9.44127 4.61776 8.49958 4.06531 7.3005 4.06531C5.24135 4.06531 3.64049 5.67245 3.64049 7.989ZM4.93374 7.98272C4.93374 6.40069 5.97587 5.32717 7.37584 5.32717C8.50586 5.32717 9.13993 6.01146 9.53544 6.60786C9.71122 6.86525 9.8305 6.94686 9.99372 6.94686C10.1632 6.94686 10.27 6.85897 10.452 6.60786C10.8789 6.02401 11.4879 5.32717 12.6116 5.32717C14.0179 5.32717 15.06 6.40069 15.06 7.98272C15.06 10.1925 12.7623 12.6409 10.113 14.3987C10.0565 14.4364 10.0188 14.4615 9.99372 14.4615C9.96861 14.4615 9.93094 14.4364 9.88072 14.3987C7.23145 12.6409 4.93374 10.1925 4.93374 7.98272Z" fill="#323643"/>
</svg>
