<svg width="24" height="24" viewBox="0 0 24 24" fill="none" xmlns="http://www.w3.org/2000/svg">
<path d="M12 19.4932C16.2564 19.4932 19.7821 15.9751 19.7821 11.7112C19.7821 7.45475 16.2564 3.92908 11.9924 3.92908C7.73603 3.92908 4.2179 7.45475 4.2179 11.7112C4.2179 15.9751 7.74357 19.4932 12 19.4932ZM8.47431 14.9506L11.3747 7.56022C11.6158 6.98014 12.3842 6.96507 12.6102 7.54515L15.5181 14.9506C15.7592 15.5532 15.1188 15.9977 14.6066 15.4854L12.1959 13.0747C12.0753 12.9542 11.9246 12.9542 11.7966 13.0747L9.38586 15.4854C8.88112 15.9977 8.23324 15.5532 8.47431 14.9506Z" fill="#323643"/>
</svg>
