<svg width="21" height="21" viewBox="0 0 21 21" fill="none" xmlns="http://www.w3.org/2000/svg">
<path d="M5.95479 10.9688H9.78431V14.7983C9.78431 15.1875 10.1045 15.514 10.5 15.514C10.8955 15.514 11.2157 15.1875 11.2157 14.7983V10.9688H15.0452C15.4344 10.9688 15.7609 10.6486 15.7609 10.2531C15.7609 9.85756 15.4344 9.53739 15.0452 9.53739H11.2157V5.70787C11.2157 5.31864 10.8955 4.99219 10.5 4.99219C10.1045 4.99219 9.78431 5.31864 9.78431 5.70787V9.53739H5.95479C5.56556 9.53739 5.23911 9.85756 5.23911 10.2531C5.23911 10.6486 5.56556 10.9688 5.95479 10.9688Z" fill="#323643"/>
</svg>
