<svg width="24" height="24" viewBox="0 0 24 24" fill="none" xmlns="http://www.w3.org/2000/svg">
<path d="M11.9925 19.4933C16.264 19.4933 19.7897 15.9676 19.7897 11.7037C19.7897 7.43973 16.2565 3.91406 11.985 3.91406C7.72102 3.91406 4.20288 7.43973 4.20288 11.7037C4.20288 15.9676 7.72855 19.4933 11.9925 19.4933ZM8.3463 11.7112C8.3463 11.2667 8.6627 10.9579 9.09964 10.9579H11.2467V8.81083C11.2467 8.37388 11.548 8.06501 11.9774 8.06501C12.4219 8.06501 12.7308 8.37388 12.7308 8.81083V10.9579H14.8854C15.3148 10.9579 15.6312 11.2667 15.6312 11.7112C15.6312 12.1406 15.3148 12.4495 14.8854 12.4495H12.7308V14.5965C12.7308 15.0259 12.4219 15.3424 11.9774 15.3424C11.548 15.3424 11.2467 15.0259 11.2467 14.5965V12.4495H9.09964C8.6627 12.4495 8.3463 12.1406 8.3463 11.7112Z" fill="#323643"/>
</svg>
