<svg width="358" height="284" viewBox="0 0 358 284" fill="none" xmlns="http://www.w3.org/2000/svg">
<path d="M16.8498 191.55C21.0969 204.041 27.1717 215.835 34.8762 226.546C43.3889 238.104 53.7889 248.144 65.639 256.244C102.044 281.822 144.733 283.433 160.031 283.82C180.733 284.357 226.195 285.528 269.281 256.244C273.541 253.348 339.353 207.349 341.404 128.968C341.871 111.126 343.024 66.8522 314.884 44.1168C288.927 23.1681 265.663 42.8317 207.764 18.6615C186.393 9.74515 179.536 2.92364 160.031 0.635128C131.24 -2.69201 108.1 7.87033 96.3931 13.3628C87.7055 17.4469 34.1544 43.7207 15.776 105.634C13.3906 113.723 3.09232 151.043 16.8498 191.55Z" fill="#FFFAAE"/>
<path d="M261.443 144.158V227.174H100.24V144.527C102.871 143.856 105.245 142.423 107.064 140.408C108.884 138.394 110.068 135.887 110.469 133.202V127.31H110.624C110.624 127.809 110.624 128.284 110.624 128.766V130.869C110.649 131.284 110.649 131.699 110.624 132.113C111.074 135.636 112.792 138.874 115.456 141.222C118.12 143.57 121.549 144.867 125.1 144.87C127.017 144.87 128.915 144.493 130.685 143.759C132.456 143.025 134.065 141.95 135.42 140.594C136.775 139.238 137.849 137.629 138.582 135.858C139.315 134.087 139.691 132.189 139.69 130.272V131.565C139.711 135.03 141.084 138.35 143.515 140.819C145.946 143.288 149.244 144.711 152.709 144.785C156.173 144.86 159.53 143.58 162.065 141.218C164.6 138.856 166.114 135.599 166.284 132.138L166.383 129.978C166.383 130.19 166.383 130.395 166.383 130.608C166.375 134.395 167.872 138.03 170.545 140.713C173.217 143.396 176.846 144.908 180.633 144.915C184.42 144.923 188.055 143.426 190.738 140.753C193.422 138.081 194.933 134.452 194.941 130.665C194.941 134.432 196.437 138.046 199.102 140.71C201.766 143.374 205.379 144.87 209.146 144.87C212.914 144.87 216.527 143.374 219.191 140.71C221.855 138.046 223.352 134.432 223.352 130.665V130.272C223.352 134.144 224.89 137.857 227.628 140.595C230.365 143.332 234.078 144.87 237.95 144.87C241.822 144.87 245.535 143.332 248.273 140.595C251.01 137.857 252.548 134.144 252.548 130.272V131.565C252.548 134.333 253.405 137.033 255 139.295C256.596 141.558 258.852 143.271 261.459 144.199L261.443 144.158Z" fill="#FFD76F"/>
<path d="M122.858 77.427L112.22 114.659L110.542 120.534L110.469 120.788V133.202C110.057 135.882 108.864 138.381 107.038 140.387C105.213 142.392 102.837 143.815 100.207 144.478C99.1034 144.761 97.9679 144.904 96.828 144.903C95.0151 144.903 93.22 144.546 91.5452 143.852C89.8704 143.158 88.3486 142.142 87.0667 140.86C85.7848 139.578 84.768 138.056 84.0742 136.381C83.3805 134.706 83.0234 132.911 83.0234 131.099V120.796L95.486 89.3495L100.207 77.427H122.858Z" fill="#E4442A"/>
<path d="M147.055 77.427L139.69 120.796V130.338C139.691 132.254 139.315 134.152 138.582 135.923C137.849 137.694 136.775 139.304 135.42 140.66C134.065 142.015 132.456 143.091 130.685 143.824C128.915 144.558 127.017 144.936 125.1 144.936C121.549 144.933 118.12 143.636 115.456 141.288C112.792 138.94 111.074 135.701 110.624 132.179C110.649 131.764 110.649 131.349 110.624 130.935V128.832C110.624 128.349 110.665 127.874 110.624 127.375L110.543 120.829V120.567L112.22 114.692L122.858 77.4597L147.055 77.427Z" fill="#FFC42E"/>
<path d="M168.101 77.427L166.783 120.796L166.497 127.343L166.382 130.043L166.284 132.203C166.114 135.664 164.6 138.922 162.065 141.284C159.529 143.646 156.173 144.925 152.709 144.851C149.244 144.776 145.946 143.353 143.515 140.884C141.083 138.415 139.711 135.095 139.69 131.63V120.796L147.055 77.427H168.101Z" fill="#E4442A"/>
<path d="M194.924 120.796V130.747C194.917 134.534 193.405 138.163 190.722 140.835C188.039 143.508 184.404 145.005 180.617 144.997C176.83 144.99 173.201 143.478 170.528 140.795C167.856 138.112 166.359 134.477 166.366 130.689C166.366 130.477 166.366 130.272 166.366 130.059L166.481 127.359L166.767 120.813L168.085 77.4435H193.82L194.924 120.796Z" fill="#FFC42E"/>
<path d="M223.335 120.796V130.747C223.335 134.514 221.839 138.127 219.175 140.791C216.511 143.455 212.897 144.952 209.13 144.952C205.362 144.952 201.749 143.455 199.085 140.791C196.421 138.127 194.924 134.514 194.924 130.747V120.796L193.836 77.427H215.112L223.335 120.796Z" fill="#E4442A"/>
<path d="M252.532 120.796V130.338C252.532 134.209 250.994 137.922 248.256 140.66C245.518 143.398 241.805 144.936 237.934 144.936C234.062 144.936 230.349 143.398 227.611 140.66C224.873 137.922 223.335 134.209 223.335 130.338V120.796L215.087 77.427H240.159L252.532 120.796Z" fill="#FFC42E"/>
<path d="M279.355 120.796V131.565C279.345 135.115 277.927 138.516 275.413 141.022C272.899 143.528 269.494 144.936 265.944 144.936C264.407 144.926 262.884 144.649 261.443 144.117C258.849 143.193 256.601 141.493 255.007 139.247C253.413 137.001 252.549 134.319 252.532 131.565V120.796L240.159 77.427H263.579L279.355 120.796Z" fill="#E4442A"/>
<path d="M252.442 174.803V185.441H226.257V174.803C226.257 171.331 227.636 168.001 230.091 165.545C232.547 163.09 235.877 161.711 239.349 161.711C242.822 161.711 246.152 163.09 248.607 165.545C251.062 168.001 252.442 171.331 252.442 174.803Z" fill="#FFC42E" stroke="#FFBC00" stroke-width="4" stroke-miterlimit="10"/>
<path d="M255.715 185.441H222.984V191.987H255.715V185.441Z" fill="#FFA90D"/>
<path d="M137.882 174.803V185.441H111.696V174.803C111.696 171.331 113.076 168.001 115.531 165.545C117.986 163.09 121.317 161.711 124.789 161.711C128.261 161.711 131.591 163.09 134.047 165.545C136.502 168.001 137.882 171.331 137.882 174.803Z" fill="#FFC42E" stroke="#FFBC00" stroke-width="4" stroke-miterlimit="10"/>
<path d="M141.155 185.441H108.423V191.987H141.155V185.441Z" fill="#FFA90D"/>
<path d="M182.069 157.619C190.75 157.619 199.075 161.068 205.214 167.206C211.352 173.344 214.801 181.67 214.801 190.351V223.082H149.338V190.351C149.338 181.67 152.786 173.344 158.924 167.206C165.063 161.068 173.388 157.619 182.069 157.619Z" fill="#FF3551" stroke="#FF5074" stroke-miterlimit="10"/>
<path d="M104.422 66.7893H134.608V77.4271H100.24V71.0117C100.235 70.4591 100.339 69.911 100.547 69.3989C100.754 68.8869 101.062 68.4211 101.45 68.0285C101.839 67.6358 102.302 67.3242 102.812 67.1115C103.322 66.8988 103.869 66.7893 104.422 66.7893Z" fill="#FDFF93"/>
<path d="M265.534 71.0117V77.4679H231.166V66.8302H261.353C261.902 66.8302 262.446 66.9384 262.953 67.1485C263.461 67.3586 263.921 67.6666 264.31 68.0549C264.698 68.4432 265.006 68.9042 265.216 69.4115C265.426 69.9188 265.534 70.4625 265.534 71.0117Z" fill="#FDFF93"/>
<path d="M231.166 65.6192V77.4271H134.608V65.6192C134.608 63.1082 135.606 60.7001 137.381 58.9246C139.157 57.1491 141.565 56.1516 144.076 56.1516H221.699C224.21 56.1516 226.618 57.1491 228.393 58.9246C230.169 60.7001 231.166 63.1082 231.166 65.6192Z" fill="#FCEB70"/>
<path d="M144.485 62.2888C141.974 62.2888 139.566 63.2863 137.791 65.0618C136.015 66.8373 135.018 69.2455 135.018 71.7564V77.4271H231.166V68.9988C230.574 67.0578 229.374 65.3582 227.744 64.1503C226.113 62.9423 224.137 62.2898 222.108 62.2888H144.485Z" fill="#FFF388"/>
<path d="M191.07 198.943C193.104 198.943 194.753 197.294 194.753 195.261C194.753 193.227 193.104 191.578 191.07 191.578C189.037 191.578 187.388 193.227 187.388 195.261C187.388 197.294 189.037 198.943 191.07 198.943Z" fill="#E4442A"/>
<path d="M173.068 198.943C175.102 198.943 176.75 197.294 176.75 195.261C176.75 193.227 175.102 191.578 173.068 191.578C171.034 191.578 169.386 193.227 169.386 195.261C169.386 197.294 171.034 198.943 173.068 198.943Z" fill="#E4442A"/>
<path d="M182.069 157.619L182.887 223.082" stroke="#E4442A" stroke-miterlimit="10"/>
<path d="M100.24 210.816V227.182H40.2106C38.8202 225.597 38.0525 223.562 38.0503 221.454C38.1061 219.013 39.1285 216.694 40.8929 215.006C42.6574 213.318 45.0195 212.4 47.4606 212.453C48.4278 212.452 49.3899 212.592 50.3164 212.87C50.1983 212.115 50.1381 211.352 50.1364 210.587C50.1364 202.322 57.141 195.621 65.7821 195.621C74.4232 195.621 81.4196 202.322 81.4196 210.587C81.4211 211.098 81.3938 211.609 81.3377 212.117C82.2368 211.499 83.262 211.088 84.3392 210.915C85.4165 210.741 86.5188 210.809 87.5665 211.114C88.6143 211.418 89.5812 211.952 90.3975 212.676C91.2138 213.4 91.859 214.297 92.2864 215.3C93.0235 213.943 94.1136 212.809 95.4416 212.02C96.7696 211.231 98.2862 210.815 99.831 210.816H100.24Z" fill="#3BB243"/>
<path d="M316.268 225.946C316.267 226.357 316.237 226.767 316.178 227.174H261.443V211.667C261.713 211.667 261.983 211.626 262.261 211.626C263.502 211.611 264.731 211.867 265.862 212.377C266.993 212.888 267.998 213.64 268.808 214.58V214.49C268.808 207.036 275.223 200.989 283.128 200.989C286.173 200.935 289.155 201.86 291.636 203.628C294.116 205.395 295.964 207.912 296.908 210.808H297.039C299.976 210.808 302.357 214.286 302.357 218.582C302.357 218.794 302.357 219.007 302.357 219.22C303.871 218.008 305.753 217.35 307.693 217.354C309.969 217.359 312.15 218.266 313.758 219.877C315.365 221.487 316.268 223.67 316.268 225.946Z" fill="#89C93C"/>
<path d="M2.86401 83.9733C2.94876 83.1039 3.22846 82.2648 3.6823 81.5185C4.29327 80.5162 5.13494 79.6746 6.13717 79.0636C7.38967 78.273 8.77634 77.7183 10.2286 77.427C12.1149 77.0122 14.0296 76.7387 15.9566 76.6087C19.4753 76.216 21.2346 76.0196 21.6846 75.7904C23.4112 74.9149 23.6894 73.6956 26.5944 68.4259C28.6728 64.6454 29.7366 62.7469 30.6858 61.8795C34.1063 58.7537 38.6068 58.6064 39.687 58.6064C40.9553 58.6064 46.1678 58.4346 49.5064 61.8795C51.323 63.7534 50.693 64.7354 53.5979 70.0624C55.4718 73.4911 56.4046 75.2095 57.6893 75.7904C60.9052 77.247 63.5155 74.1539 67.5088 75.7904C68.7625 76.3657 69.8786 77.2028 70.7819 78.2453C72.3282 79.8558 73.4526 81.8235 74.0551 83.9733C19.0988 86.3054 3.01949 85.6263 2.86401 83.9733Z" fill="#FBB039"/>
<path d="M286.81 113.432C286.895 112.562 287.174 111.723 287.628 110.977C288.239 109.975 289.081 109.133 290.083 108.522C291.336 107.731 292.722 107.177 294.175 106.885C296.061 106.471 297.976 106.197 299.903 106.067C303.421 105.674 305.181 105.478 305.631 105.249C307.357 104.373 307.635 103.154 310.54 97.8842C312.619 94.1037 313.683 92.2053 314.632 91.3379C318.052 88.2121 322.553 88.0648 323.633 88.0648C324.901 88.0648 330.114 87.8929 333.452 91.3379C335.269 93.2118 334.639 94.1937 337.544 99.5208C339.418 102.949 340.351 104.668 341.635 105.249C344.851 106.705 347.461 103.571 351.455 105.249C352.708 105.824 353.825 106.661 354.728 107.704C356.274 109.314 357.398 111.282 358.001 113.432C303.045 115.764 286.965 115.085 286.81 113.432Z" fill="#FBB039"/>
<path d="M48.2789 223.492C48.793 223.823 49.3418 224.097 49.9155 224.31C50.9699 224.71 52.1342 224.71 53.1886 224.31C54.1706 223.827 54.0642 223.189 54.8252 222.673C56.2654 221.691 57.9756 223.123 60.5532 223.492C64.17 223.999 64.5956 221.716 68.7361 221.855C71.4446 221.945 71.4201 222.927 75.2824 223.492C78.3592 223.942 81.3377 224.375 82.647 222.673C83.1963 221.772 83.415 220.707 83.2657 219.662C83.1164 218.617 82.6084 217.657 81.8287 216.945C80.6013 216.037 79.6193 217.002 77.7373 216.127C76.9488 215.695 76.2536 215.11 75.6919 214.408C75.1301 213.706 74.7128 212.9 74.4641 212.035C74.1027 210.696 74.1027 209.284 74.4641 207.944C75.1515 204.671 73.8504 200.187 71.6574 196.717C69.7853 195.984 67.7924 195.61 65.7821 195.612C57.141 195.612 50.1364 202.314 50.1364 210.579C50.1381 211.343 50.1983 212.107 50.3164 212.862C49.3899 212.584 48.4278 212.444 47.4606 212.445C45.0195 212.392 42.6574 213.31 40.8929 214.998C39.1285 216.686 38.1061 219.005 38.0503 221.446C38.0525 223.554 38.8202 225.589 40.2106 227.174H43.4837C46.1186 223.917 47.5261 223.213 48.2789 223.492Z" fill="#89C93C"/>
<path d="M281.491 225.554C280.913 224.713 280.034 224.127 279.036 223.917C276.745 223.213 276.066 224.203 273.308 223.917C271.942 223.778 270.763 223.287 268.398 222.28C266.467 221.462 266.091 221.11 265.944 220.644C265.51 219.326 267.007 217.952 267.58 217.42C269.47 215.677 270.911 216.2 272.49 215.006C274.405 213.557 274.266 211.283 274.945 208.566C275.588 206.085 276.717 203.757 278.267 201.717C272.76 203.566 268.808 208.451 268.808 214.204V214.294C267.992 213.363 266.985 212.621 265.855 212.118C264.724 211.615 263.498 211.363 262.261 211.381C261.983 211.381 261.713 211.381 261.443 211.422V226.683H281.818C281.774 226.29 281.664 225.909 281.491 225.554Z" fill="#3BB243"/>
<path d="M0 227.583H10.7032H98.6037H259.806H337.454H353.5" stroke="#8C2E09" stroke-width="4" stroke-miterlimit="10"/>
<path d="M154.875 69.303L153.027 66.039H152.235V69.303H150.555V60.927H153.699C154.347 60.927 154.899 61.043 155.355 61.275C155.811 61.499 156.151 61.807 156.375 62.199C156.607 62.583 156.723 63.015 156.723 63.495C156.723 64.047 156.563 64.547 156.243 64.995C155.923 65.435 155.447 65.739 154.815 65.907L156.819 69.303H154.875ZM152.235 64.779H153.639C154.095 64.779 154.435 64.671 154.659 64.455C154.883 64.231 154.995 63.923 154.995 63.531C154.995 63.147 154.883 62.851 154.659 62.643C154.435 62.427 154.095 62.319 153.639 62.319H152.235V64.779ZM164.422 65.835C164.422 66.075 164.406 66.291 164.374 66.483H159.514C159.554 66.963 159.722 67.339 160.018 67.611C160.314 67.883 160.678 68.019 161.11 68.019C161.734 68.019 162.178 67.751 162.442 67.215H164.254C164.062 67.855 163.694 68.383 163.15 68.799C162.606 69.207 161.938 69.411 161.146 69.411C160.506 69.411 159.93 69.271 159.418 68.991C158.914 68.703 158.518 68.299 158.23 67.779C157.95 67.259 157.81 66.659 157.81 65.979C157.81 65.291 157.95 64.687 158.23 64.167C158.51 63.647 158.902 63.247 159.406 62.967C159.91 62.687 160.49 62.547 161.146 62.547C161.778 62.547 162.342 62.683 162.838 62.955C163.342 63.227 163.73 63.615 164.002 64.119C164.282 64.615 164.422 65.187 164.422 65.835ZM162.682 65.355C162.674 64.923 162.518 64.579 162.214 64.323C161.91 64.059 161.538 63.927 161.098 63.927C160.682 63.927 160.33 64.055 160.042 64.311C159.762 64.559 159.59 64.907 159.526 65.355H162.682ZM168.192 69.411C167.648 69.411 167.16 69.315 166.728 69.123C166.296 68.923 165.952 68.655 165.696 68.319C165.448 67.983 165.312 67.611 165.288 67.203H166.98C167.012 67.459 167.136 67.671 167.352 67.839C167.576 68.007 167.852 68.091 168.18 68.091C168.5 68.091 168.748 68.027 168.924 67.899C169.108 67.771 169.2 67.607 169.2 67.407C169.2 67.191 169.088 67.031 168.864 66.927C168.648 66.815 168.3 66.695 167.82 66.567C167.324 66.447 166.916 66.323 166.596 66.195C166.284 66.067 166.012 65.871 165.78 65.607C165.556 65.343 165.444 64.987 165.444 64.539C165.444 64.171 165.548 63.835 165.756 63.531C165.972 63.227 166.276 62.987 166.668 62.811C167.068 62.635 167.536 62.547 168.072 62.547C168.864 62.547 169.496 62.747 169.968 63.147C170.44 63.539 170.7 64.071 170.748 64.743H169.14C169.116 64.479 169.004 64.271 168.804 64.119C168.612 63.959 168.352 63.879 168.024 63.879C167.72 63.879 167.484 63.935 167.316 64.047C167.156 64.159 167.076 64.315 167.076 64.515C167.076 64.739 167.188 64.911 167.412 65.031C167.636 65.143 167.984 65.259 168.456 65.379C168.936 65.499 169.332 65.623 169.644 65.751C169.956 65.879 170.224 66.079 170.448 66.351C170.68 66.615 170.8 66.967 170.808 67.407C170.808 67.791 170.7 68.135 170.484 68.439C170.276 68.743 169.972 68.983 169.572 69.159C169.18 69.327 168.72 69.411 168.192 69.411ZM174.143 64.035V67.251C174.143 67.475 174.195 67.639 174.299 67.743C174.411 67.839 174.595 67.887 174.851 67.887H175.631V69.303H174.575C173.159 69.303 172.451 68.615 172.451 67.239V64.035H171.659V62.655H172.451V61.011H174.143V62.655H175.631V64.035H174.143ZM176.408 65.955C176.408 65.283 176.54 64.687 176.804 64.167C177.076 63.647 177.44 63.247 177.896 62.967C178.36 62.687 178.876 62.547 179.444 62.547C179.94 62.547 180.372 62.647 180.74 62.847C181.116 63.047 181.416 63.299 181.64 63.603V62.655H183.332V69.303H181.64V68.331C181.424 68.643 181.124 68.903 180.74 69.111C180.364 69.311 179.928 69.411 179.432 69.411C178.872 69.411 178.36 69.267 177.896 68.979C177.44 68.691 177.076 68.287 176.804 67.767C176.54 67.239 176.408 66.635 176.408 65.955ZM181.64 65.979C181.64 65.571 181.56 65.223 181.4 64.935C181.24 64.639 181.024 64.415 180.752 64.263C180.48 64.103 180.188 64.023 179.876 64.023C179.564 64.023 179.276 64.099 179.012 64.251C178.748 64.403 178.532 64.627 178.364 64.923C178.204 65.211 178.124 65.555 178.124 65.955C178.124 66.355 178.204 66.707 178.364 67.011C178.532 67.307 178.748 67.535 179.012 67.695C179.284 67.855 179.572 67.935 179.876 67.935C180.188 67.935 180.48 67.859 180.752 67.707C181.024 67.547 181.24 67.323 181.4 67.035C181.56 66.739 181.64 66.387 181.64 65.979ZM191.249 62.655V69.303H189.557V68.463C189.341 68.751 189.057 68.979 188.705 69.147C188.361 69.307 187.985 69.387 187.577 69.387C187.057 69.387 186.597 69.279 186.197 69.063C185.797 68.839 185.481 68.515 185.249 68.091C185.025 67.659 184.913 67.147 184.913 66.555V62.655H186.593V66.315C186.593 66.843 186.725 67.251 186.989 67.539C187.253 67.819 187.613 67.959 188.069 67.959C188.533 67.959 188.897 67.819 189.161 67.539C189.425 67.251 189.557 66.843 189.557 66.315V62.655H191.249ZM194.586 63.687C194.802 63.335 195.082 63.059 195.426 62.859C195.778 62.659 196.178 62.559 196.626 62.559V64.323H196.182C195.654 64.323 195.254 64.447 194.982 64.695C194.718 64.943 194.586 65.375 194.586 65.991V69.303H192.906V62.655H194.586V63.687ZM197.326 65.955C197.326 65.283 197.458 64.687 197.722 64.167C197.994 63.647 198.358 63.247 198.814 62.967C199.278 62.687 199.794 62.547 200.362 62.547C200.858 62.547 201.29 62.647 201.658 62.847C202.034 63.047 202.334 63.299 202.558 63.603V62.655H204.25V69.303H202.558V68.331C202.342 68.643 202.042 68.903 201.658 69.111C201.282 69.311 200.846 69.411 200.35 69.411C199.79 69.411 199.278 69.267 198.814 68.979C198.358 68.691 197.994 68.287 197.722 67.767C197.458 67.239 197.326 66.635 197.326 65.955ZM202.558 65.979C202.558 65.571 202.478 65.223 202.318 64.935C202.158 64.639 201.942 64.415 201.67 64.263C201.398 64.103 201.106 64.023 200.794 64.023C200.482 64.023 200.194 64.099 199.93 64.251C199.666 64.403 199.45 64.627 199.282 64.923C199.122 65.211 199.042 65.555 199.042 65.955C199.042 66.355 199.122 66.707 199.282 67.011C199.45 67.307 199.666 67.535 199.93 67.695C200.202 67.855 200.49 67.935 200.794 67.935C201.106 67.935 201.398 67.859 201.67 67.707C201.942 67.547 202.158 67.323 202.318 67.035C202.478 66.739 202.558 66.387 202.558 65.979ZM209.575 62.559C210.367 62.559 211.007 62.811 211.495 63.315C211.983 63.811 212.227 64.507 212.227 65.403V69.303H210.547V65.631C210.547 65.103 210.415 64.699 210.151 64.419C209.887 64.131 209.527 63.987 209.071 63.987C208.607 63.987 208.239 64.131 207.967 64.419C207.703 64.699 207.571 65.103 207.571 65.631V69.303H205.891V62.655H207.571V63.483C207.795 63.195 208.079 62.971 208.423 62.811C208.775 62.643 209.159 62.559 209.575 62.559ZM215.78 64.035V67.251C215.78 67.475 215.832 67.639 215.936 67.743C216.048 67.839 216.232 67.887 216.488 67.887H217.268V69.303H216.212C214.796 69.303 214.088 68.615 214.088 67.239V64.035H213.296V62.655H214.088V61.011H215.78V62.655H217.268V64.035H215.78Z" fill="#E4442A"/>
</svg>
