<svg width="20" height="20" viewBox="0 0 20 20" fill="none" xmlns="http://www.w3.org/2000/svg">
<path d="M17.5 17.5L13.8808 13.8809M13.8808 13.8809C14.4999 13.2618 14.991 12.5269 15.326 11.718C15.6611 10.9091 15.8335 10.0422 15.8335 9.16672C15.8335 8.29121 15.6611 7.42429 15.326 6.61543C14.991 5.80657 14.4999 5.07162 13.8808 4.45255C13.2618 3.83348 12.5268 3.3424 11.718 3.00736C10.9091 2.67232 10.0422 2.49988 9.16667 2.49988C8.29117 2.49988 7.42424 2.67232 6.61538 3.00736C5.80652 3.3424 5.07158 3.83348 4.4525 4.45255C3.20223 5.70282 2.49983 7.39856 2.49983 9.16672C2.49983 10.9349 3.20223 12.6306 4.4525 13.8809C5.70278 15.1312 7.39851 15.8336 9.16667 15.8336C10.9348 15.8336 12.6306 15.1312 13.8808 13.8809Z" stroke="#323643" stroke-width="1.5" stroke-linecap="round" stroke-linejoin="round"/>
</svg>
