<svg width="18" height="18" viewBox="0 0 18 18" fill="none" xmlns="http://www.w3.org/2000/svg">
<path d="M6.75 3.75001C6.55109 3.75001 6.36032 3.82902 6.21967 3.96968C6.07902 4.11033 6 4.30109 6 4.50001C6 4.69892 6.07902 4.88968 6.21967 5.03034C6.36032 5.17099 6.55109 5.25001 6.75 5.25001C6.94891 5.25001 7.13968 5.17099 7.28033 5.03034C7.42098 4.88968 7.5 4.69892 7.5 4.50001C7.5 4.30109 7.42098 4.11033 7.28033 3.96968C7.13968 3.82902 6.94891 3.75001 6.75 3.75001ZM4.6275 3.75001C4.78245 3.31086 5.0698 2.93058 5.44995 2.6616C5.8301 2.39262 6.28432 2.24817 6.75 2.24817C7.21568 2.24817 7.6699 2.39262 8.05005 2.6616C8.4302 2.93058 8.71755 3.31086 8.8725 3.75001H14.25C14.4489 3.75001 14.6397 3.82902 14.7803 3.96968C14.921 4.11033 15 4.30109 15 4.50001C15 4.69892 14.921 4.88968 14.7803 5.03034C14.6397 5.17099 14.4489 5.25001 14.25 5.25001H8.8725C8.71755 5.68916 8.4302 6.06943 8.05005 6.33842C7.6699 6.6074 7.21568 6.75184 6.75 6.75184C6.28432 6.75184 5.8301 6.6074 5.44995 6.33842C5.0698 6.06943 4.78245 5.68916 4.6275 5.25001H3.75C3.55109 5.25001 3.36032 5.17099 3.21967 5.03034C3.07902 4.88968 3 4.69892 3 4.50001C3 4.30109 3.07902 4.11033 3.21967 3.96968C3.36032 3.82902 3.55109 3.75001 3.75 3.75001H4.6275ZM11.25 8.25001C11.0511 8.25001 10.8603 8.32902 10.7197 8.46968C10.579 8.61033 10.5 8.8011 10.5 9.00001C10.5 9.19892 10.579 9.38968 10.7197 9.53034C10.8603 9.67099 11.0511 9.75001 11.25 9.75001C11.4489 9.75001 11.6397 9.67099 11.7803 9.53034C11.921 9.38968 12 9.19892 12 9.00001C12 8.8011 11.921 8.61033 11.7803 8.46968C11.6397 8.32902 11.4489 8.25001 11.25 8.25001ZM9.1275 8.25001C9.28245 7.81086 9.5698 7.43058 9.94995 7.1616C10.3301 6.89262 10.7843 6.74817 11.25 6.74817C11.7157 6.74817 12.1699 6.89262 12.5501 7.1616C12.9302 7.43058 13.2175 7.81086 13.3725 8.25001H14.25C14.4489 8.25001 14.6397 8.32902 14.7803 8.46968C14.921 8.61033 15 8.8011 15 9.00001C15 9.19892 14.921 9.38968 14.7803 9.53034C14.6397 9.67099 14.4489 9.75001 14.25 9.75001H13.3725C13.2175 10.1892 12.9302 10.5694 12.5501 10.8384C12.1699 11.1074 11.7157 11.2518 11.25 11.2518C10.7843 11.2518 10.3301 11.1074 9.94995 10.8384C9.5698 10.5694 9.28245 10.1892 9.1275 9.75001H3.75C3.55109 9.75001 3.36032 9.67099 3.21967 9.53034C3.07902 9.38968 3 9.19892 3 9.00001C3 8.8011 3.07902 8.61033 3.21967 8.46968C3.36032 8.32902 3.55109 8.25001 3.75 8.25001H9.1275ZM6.75 12.75C6.55109 12.75 6.36032 12.829 6.21967 12.9697C6.07902 13.1103 6 13.3011 6 13.5C6 13.6989 6.07902 13.8897 6.21967 14.0303C6.36032 14.171 6.55109 14.25 6.75 14.25C6.94891 14.25 7.13968 14.171 7.28033 14.0303C7.42098 13.8897 7.5 13.6989 7.5 13.5C7.5 13.3011 7.42098 13.1103 7.28033 12.9697C7.13968 12.829 6.94891 12.75 6.75 12.75ZM4.6275 12.75C4.78245 12.3109 5.0698 11.9306 5.44995 11.6616C5.8301 11.3926 6.28432 11.2482 6.75 11.2482C7.21568 11.2482 7.6699 11.3926 8.05005 11.6616C8.4302 11.9306 8.71755 12.3109 8.8725 12.75H14.25C14.4489 12.75 14.6397 12.829 14.7803 12.9697C14.921 13.1103 15 13.3011 15 13.5C15 13.6989 14.921 13.8897 14.7803 14.0303C14.6397 14.171 14.4489 14.25 14.25 14.25H8.8725C8.71755 14.6892 8.4302 15.0694 8.05005 15.3384C7.6699 15.6074 7.21568 15.7518 6.75 15.7518C6.28432 15.7518 5.8301 15.6074 5.44995 15.3384C5.0698 15.0694 4.78245 14.6892 4.6275 14.25H3.75C3.55109 14.25 3.36032 14.171 3.21967 14.0303C3.07902 13.8897 3 13.6989 3 13.5C3 13.3011 3.07902 13.1103 3.21967 12.9697C3.36032 12.829 3.55109 12.75 3.75 12.75H4.6275Z" fill="#FE724C"/>
</svg>
